# xmcd
#
# Track frame offsets:
# 150
# 13423
# 30001
# 41939
# 56001
# 67983
# 83079
# 104047
# 113363
# 126440
# 139368
# 155029
# 173502
# 185955
# 198803
#
# Disc length: 2872 seconds
#
# Revision: 0
# Processed by: cddbd v1.5.1PL0 Copyright (c) Steve Scherf et al.
# Submitted via: Axialis_AX_CDPlayer 2.6
#
DISCID=d20b360f
DTITLE=Dr. Hook - Dr. Hook (The Collection)
DYEAR=1900
DGENRE=
TTITLE0=When you're in love with a beautiful woman
TTITLE1=More like the movies
TTITLE2=Mountain Mary
TTITLE3=A couple more years
TTITLE4=Up on the mountain
TTITLE5=I don't want to be alone tonight
TTITLE6=Clyde
TTITLE7=Who dat
TTITLE8=Let me be your lover
TTITLE9=I wanna make the women tremble
TTITLE10=The Radio
TTITLE11=Help me Mama
TTITLE12=Makin'love and music
TTITLE13=On the way to the bottom
TTITLE14=What a way to go
EXTD=
EXTT0=
EXTT1=
EXTT2=
EXTT3=
EXTT4=
EXTT5=
EXTT6=
EXTT7=
EXTT8=
EXTT9=
EXTT10=
EXTT11=
EXTT12=
EXTT13=
EXTT14=
PLAYORDER=
